<svg width="1536" height="45" viewBox="0 0 1536 45" fill="none" xmlns="http://www.w3.org/2000/svg">
<path d="M1536 2.98948C1531.52 2.19877 1506.82 2.69501 1510.73 2.98948C1510.64 3.82927 1501.35 2.31874 1491.49 2.98948C1481.63 4.32551 1471.18 0.824573 1468.76 2.98948C1462.12 4.35823 1455.65 0.68279 1449.17 2.98948C1442.71 4.40731 1436.24 3.93288 1429.61 2.98948C1417.93 3.07673 1405.63 -2.24556 1393.99 2.98948C1387.22 4.11829 1381.79 1.5553 1374.88 2.98948C1366.98 3.57843 1358.81 1.01543 1350.98 2.98948C1347.26 -0.282421 1345.83 1.20629 1341.86 2.98948C1339.19 3.25123 1336.31 7.42837 1333.64 2.98948C1329.46 5.90148 1328.42 3.30577 1324.06 2.98948C1319.39 1.69708 1314.02 4.98534 1309.26 2.98948C1305.11 4.69633 1300.41 3.33849 1296.37 2.98948C1295.5 3.39847 1294.49 2.37873 1294.18 2.98948C1288.64 0.69915 1283.06 4.21099 1277.65 2.98948C1268.78 3.38756 1259.76 3.81836 1250.87 2.98948C1242.69 1.20629 1234.39 3.81291 1226.21 2.98948C1219.49 0.262896 1213.35 3.48572 1206.81 2.98948C1202.01 3.80746 1198.47 5.65608 1194.9 2.98948C1191.81 -0.713222 1189.42 6.29956 1185.68 2.98948C1179.02 1.98065 1171.29 1.39716 1163.73 2.98948C1154.23 -0.473282 1146.52 -1.48757 1136.91 2.98948C1131.6 2.91314 1127.6 2.60776 1122.58 2.98948C1116.55 1.03179 1113.71 2.08971 1108.02 2.98948C1097.79 0.775494 1089.01 2.46052 1078.43 2.98948C1072.4 0.137473 1067.28 -0.407844 1061.04 2.98948C1058.91 2.06244 1054.14 3.15853 1052.37 2.98948C1051.07 4.67997 1051.11 2.85315 1049.89 2.98948C1046.01 4.91445 1032.49 3.58388 1028.32 2.98948C1023.32 1.35353 1019.09 3.63841 1014.07 2.98948C1008.79 1.35353 1003.35 5.81423 998.066 2.98948C994.154 0.764588 986.098 2.83679 982.098 2.98948C977.829 2.20423 976.02 6.33228 970.935 2.98948C966.978 2.37327 962.994 3.23488 959.037 2.98948C952.198 3.58388 946.017 6.42498 939.134 2.98948C933.051 4.08012 926.968 5.6779 920.891 2.98948C916.085 6.15778 912.857 1.65891 908.977 2.98948C906.369 3.5348 904.505 5.64518 901.65 2.98948C898.287 4.85912 894.315 4.03155 890.608 2.98948C889.622 3.44755 888.679 -0.871364 887.347 2.98948C885.073 2.74409 881.774 2.9404 879.434 2.98948C870.365 4.69087 861.29 0.808213 852.22 2.98948C846.779 3.09309 841.183 3.14762 835.742 2.98948C832.284 0.868198 830.327 1.70799 827.127 2.98948C825.132 2.04608 822.447 6.16323 820.617 2.98948C819.055 2.27512 818.326 4.3964 817.011 2.98948C813.262 3.94924 808.84 4.10738 804.292 2.98948C801.552 3.7911 799.288 3.89471 796.62 2.98948C796.504 3.8838 795.376 1.997 794.806 2.98948C789.271 4.90355 781.105 3.36575 775.077 2.98948C765.306 1.86613 755.234 3.09855 745.485 2.98948C741.775 3.5348 738.514 4.20554 734.865 2.98948C732.032 2.12243 729.029 0.0883943 726.179 2.98948C721.609 6.43043 716.77 1.75707 712.26 2.98948C705.881 2.3351 701.031 2.60231 694.323 2.98948C688.06 2.57504 685.511 3.32213 679.993 2.98948C674.036 2.25876 667.975 2.79862 661.996 2.98948C656.963 1.20072 651.462 1.20072 646.428 2.98948C640.668 4.54909 634.919 2.96222 629.154 2.98948C623.346 1.69163 618.129 0.421038 612.331 2.98948C610.632 1.62619 608.96 1.62619 607.316 2.98948C606.823 4.16191 606.177 2.16605 605.371 2.98948C602.521 2.44417 600.488 2.1606 597.151 2.98948C592.246 1.84977 588.613 2.4169 583.999 2.98948C575.779 4.86537 566.172 3.15308 557.695 2.98948C550.099 3.2785 552.697 -0.833192 548.269 2.98948C545.858 5.65608 546.422 1.24447 543.507 2.98948C539.309 1.8225 534.284 3.97105 529.993 2.98948C522.091 4.52182 514.183 2.71137 506.281 2.98948C497.074 5.09986 488.098 1.19539 479.198 2.98948C471.625 1.85522 464.369 2.76045 456.763 2.98948C451.321 1.94793 448.652 7.67921 443.989 2.98948C439.95 1.21175 435.61 0.748228 430.371 2.98948C422.54 3.22942 413.684 2.95676 405.711 2.98948C396.986 3.07128 384.832 6.13051 377.072 2.98948C368.161 2.73864 359.136 2.88587 349.699 2.98948C341.665 6.08688 333.407 0.502836 324.781 2.98948C321.197 1.06997 317.043 6.43589 313.509 2.98948C307.897 6.8067 307.508 3.2785 305.656 2.98948C301.398 8.0991 299.419 0.311974 295.759 2.98948C292.252 6.35954 289.731 5.34525 286.311 2.98948C283.966 5.92874 282.207 4.27098 279.894 2.98948C277.072 -2.86722 273.318 6.63766 270.435 2.98948C263.859 5.48704 257.283 2.81498 250.707 2.98948C245.967 2.35146 235.944 3.17489 231.774 2.98948C229.034 5.05078 229.428 5.69426 227.724 2.98948C226.041 1.29355 224.381 5.95056 221.696 2.98948C216.133 5.24164 210.736 8.53536 205.606 2.98948C200.165 4.44548 193.643 0.0120501 187.029 2.98948C180.414 -0.3315 173.707 1.22265 167.893 2.98948C159.941 4.40731 155.113 0.481023 146.756 2.98948C136.645 1.35353 125.932 4.64179 115.931 2.98948C108.67 -1.84748 100.965 1.03725 93.7583 2.98948C90.7827 4.44548 88.9523 4.48365 86.437 2.98948C82.6448 -0.473282 79.1594 1.78978 74.6055 2.98948C67.591 3.5348 59.9299 0.737322 52.91 2.98948C45.7201 1.60438 42.1088 7.00847 34.7984 2.98948C32.1405 4.58726 27.0331 1.12995 24.6986 2.98948C21.4654 2.49324 20.2543 3.58933 16.4402 2.98948C11.3602 3.6984 5.15673 3.91652 0 2.98948C0 4.08012 0 26.7162 0 28.3522C3.83604 30.0754 9.54627 30.1463 15.0756 31.5423C18.7034 31.3514 22.3367 30.997 25.9645 31.5423C31.3624 31.5423 39.4838 32.1203 43.961 30.9206C45.901 28.2704 46.5312 29.4974 48.9643 28.8866C51.8085 24.7585 54.3293 26.8962 57.3872 28.3413C62.3576 28.9411 65.3168 29.9173 69.5639 29.9336C73.3615 30.9425 74.622 34.198 79.1047 31.3296C80.6665 34.9996 79.0718 35.365 79.0005 35.6921C83.675 34.9996 88.9468 38.1188 93.9392 36.532C98.2794 36.172 101.94 37.8843 106.483 37.9007C117.739 41.7779 129.499 38.8713 140.372 37.0554C149.419 31.4768 160.297 36.6138 169.542 36.821C178.94 36.8701 186.415 37.7589 195.742 33.5927C203.891 29.9172 214.221 34.4707 221.92 33.4673C224.392 31.346 224.112 36.1339 225.756 31.7386C227.822 28.5921 230.453 31.6132 232.667 31.0024C234.738 28.8702 236.843 29.6228 238.909 30.2117C241.435 34.5743 245.518 30.9588 247.616 29.4701C251.047 28.2159 251.644 24.126 256.302 27.2506C260.549 30.1463 264.84 30.1408 269.093 27.327C273.351 27.8723 273.652 24.7095 276.924 25.582C280.349 23.2371 287.089 22.9154 291.172 22.1901C295.118 22.2773 298.449 23.1008 302.346 20.974C307.59 20.8104 313.207 20.4287 317.92 17.0096C321.12 18.3838 323.444 15.3153 326.688 15.6479C331.072 14.2355 339.879 16.4659 344.35 15.517C351.387 15.9969 355.798 13.2976 362.089 17.153C364.128 22.9606 366.079 18.02 368.074 18.2436C370.266 19.7596 371.422 14.8774 373.439 17.604C377.565 18.3838 384.399 18.2202 389.155 19.7198C394.904 22.6918 401.469 20.2652 407.322 19.9271C410.61 20.4015 414.994 21.7484 418.189 19.7798C424.935 20.8705 427.138 22.3973 430.311 27.1634C432.13 28.1231 435.106 32.5184 438.098 32.4148C440.251 33.7617 444.707 31.4442 447.195 33.62C452.368 34.0344 457.552 38.9477 462.676 36.6901C466.03 38.9914 471.833 35.4577 475.192 36.9028C479.456 35.7249 482.316 34.1108 487.057 34.6561C490.745 35.0814 495.825 34.3016 499.398 34.9178C501.316 37.3227 502.943 39.204 505.026 36.6737C508.105 33.9472 511.098 35.0378 514.134 37.0827C517.794 41.8815 521.806 36.4829 525.762 38.8769C530.026 35.245 535.034 41.8488 539.386 38.9695C543.397 41.5652 547.408 42.8576 551.442 38.9695C557.618 40.4528 562.862 39.7548 568.846 37.8789C574.962 36.4883 583.522 34.7978 589.671 38.1406C593.907 39.7057 598.072 41.6961 602.362 40.3219C607.749 40.9763 612.627 41.9579 617.816 42.765C622.085 44.0792 635.972 43.8174 640.142 43.0812C639.441 36.5919 653.119 39.1549 658.626 40.0656C668.403 40.4964 677.121 39.4113 686.958 41.1236C695.649 41.2871 701.924 44.7281 710.32 44.0791C716.512 43.7138 726.212 46.2168 732.465 44.2155C739.15 43.8501 745.2 44.0682 752.067 40.2728C760.029 41.9906 766.863 41.9088 774.694 41.1345C780.623 40.6819 786.558 41.9306 792.488 41.1345C795.26 40.7855 798.055 42.9176 800.779 40.9599C803.148 40.0913 805.613 39.5092 808.122 39.2259C809.69 38.2661 811.618 39.0513 813.131 38.8441C816.704 38.4678 819.334 37.4972 822.918 35.4032C825.982 33.4019 830.404 33.6418 833.829 33.6854C837.577 33.4291 840.202 34.4761 844.022 33.2819C849.425 31.9459 852.883 32.1912 857.547 28.9193C866.194 26.5799 878.185 27.7142 887.764 27.3815C897.266 25.0857 904.626 27.5287 913.367 25.2002C917.936 22.8749 922.793 21.157 927.812 20.0906C930.821 16.9714 935.194 19.5453 938.224 19.9707C944.713 21.5684 949.398 21.6066 955.618 18.4547C959.158 20.0415 963.219 17.9094 967.005 17.7839C968.102 15.8099 969.433 16.4643 970.535 18.013C971.28 18.9946 971.768 18.1057 972.935 19.818C976.091 18.242 979.648 19.5726 982.251 18.3238C991.364 17.9966 1000.62 19.7034 1009.89 18.9182C1015.58 19.7252 1021.3 16.3715 1027 18.9182C1035.25 21.3285 1042.55 19.8126 1049.15 20.745C1053.66 19.1691 1060.11 27.5396 1065.73 25.053C1073.17 22.8281 1080.22 25.293 1087.31 26.3236C1093.16 28.8866 1099.37 30.2717 1105.49 29.1538C1111.89 31.695 1121.5 35.1141 1129.49 33.6854C1131.78 34.7433 1132.14 31.3242 1134.42 31.5041C1137.12 30.3208 1142.44 33.5382 1145.55 31.586C1151.43 31.7386 1159.54 37.1754 1164.28 30.5825C1168.44 29.4319 1167.93 28.9466 1174 28.3358C1177.83 29.1959 1181.75 29.5896 1185.68 29.5083C1188.26 28.4974 1191.13 28.4857 1193.72 29.4756C1198.84 31.1661 1201.14 27.0434 1205.59 31.0624C1211.94 30.3099 1219.07 31.0242 1225.86 34.8197C1235.93 36.7719 1247.23 41.9088 1258.06 39.0404C1265.67 38.1461 1273.3 39.7384 1280.91 38.9586C1288.54 38.9586 1296.15 37.4099 1303.77 38.9913C1310.47 42.4323 1320.45 41.6143 1326.64 38.3697C1331.95 37.6062 1335.36 35.0542 1341.59 35.8176C1348.86 31.5696 1356.13 36.6956 1363.39 35.8176C1370.91 37.29 1380.77 37.8352 1388.18 35.8939C1392.06 35.0378 1392.44 29.4647 1395.56 32.802C1398.88 28.0905 1404.6 33.7127 1407.95 33.4128C1418.36 31.1442 1428.88 39.2749 1439.19 37.9607C1446.17 41.2762 1451.74 41.6361 1459.2 42.2033C1469.18 42.1106 1478.32 42.5195 1487.69 39.7875C1496.46 33.8926 1504.05 37.0609 1513.55 37.9062C1517.5 34.3289 1520.98 41.0035 1524.96 39.0295C1528.62 36.6083 1532.34 36.7446 1536 38.9913C1536 37.2245 1536 31.9253 1536 26.9562C1536 21.9871 1536 2.25876 1536 2.98948Z" fill="#EFFFF7"/>
</svg>
