<svg width="1536" height="45" viewBox="0 0 1536 45" fill="none" xmlns="http://www.w3.org/2000/svg">
<path d="M1536 42.0105C1531.52 42.8012 1506.82 42.305 1510.73 42.0105C1510.64 41.1707 1501.35 42.6813 1491.49 42.0105C1481.63 40.6745 1471.18 44.1754 1468.76 42.0105C1462.12 40.6418 1455.65 44.3172 1449.17 42.0105C1442.71 40.5927 1436.24 41.0671 1429.61 42.0105C1417.93 41.9233 1405.63 47.2456 1393.99 42.0105C1387.22 40.8817 1381.79 43.4447 1374.88 42.0105C1366.98 41.4216 1358.81 43.9846 1350.98 42.0105C1347.26 45.2824 1345.83 43.7937 1341.86 42.0105C1339.19 41.7488 1336.31 37.5716 1333.64 42.0105C1329.46 39.0985 1328.42 41.6942 1324.06 42.0105C1319.39 43.3029 1314.02 40.0147 1309.26 42.0105C1305.11 40.3037 1300.41 41.6615 1296.37 42.0105C1295.5 41.6015 1294.49 42.6213 1294.18 42.0105C1288.64 44.3009 1283.06 40.789 1277.65 42.0105C1268.78 41.6124 1259.76 41.1816 1250.87 42.0105C1242.69 43.7937 1234.39 41.1871 1226.21 42.0105C1219.49 44.7371 1213.35 41.5143 1206.81 42.0105C1202.01 41.1925 1198.47 39.3439 1194.9 42.0105C1191.81 45.7132 1189.42 38.7004 1185.68 42.0105C1179.02 43.0194 1171.29 43.6028 1163.73 42.0105C1154.23 45.4733 1146.52 46.4876 1136.91 42.0105C1131.6 42.0869 1127.6 42.3922 1122.58 42.0105C1116.55 43.9682 1113.71 42.9103 1108.02 42.0105C1097.79 44.2245 1089.01 42.5395 1078.43 42.0105C1072.4 44.8625 1067.28 45.4078 1061.04 42.0105C1058.91 42.9376 1054.14 41.8415 1052.37 42.0105C1051.07 40.32 1051.11 42.1468 1049.89 42.0105C1046.01 40.0855 1032.49 41.4161 1028.32 42.0105C1023.32 43.6465 1019.09 41.3616 1014.07 42.0105C1008.79 43.6465 1003.35 39.1858 998.066 42.0105C994.154 44.2354 986.098 42.1632 982.098 42.0105C977.829 42.7958 976.02 38.6677 970.935 42.0105C966.978 42.6267 962.994 41.7651 959.037 42.0105C952.198 41.4161 946.017 38.575 939.134 42.0105C933.051 40.9199 926.968 39.3221 920.891 42.0105C916.085 38.8422 912.857 43.3411 908.977 42.0105C906.369 41.4652 904.505 39.3548 901.65 42.0105C898.287 40.1409 894.315 40.9684 890.608 42.0105C889.622 41.5525 888.679 45.8714 887.347 42.0105C885.073 42.2559 881.774 42.0596 879.434 42.0105C870.365 40.3091 861.29 44.1918 852.22 42.0105C846.779 41.9069 841.183 41.8524 835.742 42.0105C832.284 44.1318 830.327 43.292 827.127 42.0105C825.132 42.9539 822.447 38.8368 820.617 42.0105C819.055 42.7249 818.326 40.6036 817.011 42.0105C813.262 41.0508 808.84 40.8926 804.292 42.0105C801.552 41.2089 799.288 41.1053 796.62 42.0105C796.504 41.1162 795.376 43.003 794.806 42.0105C789.271 40.0965 781.105 41.6342 775.077 42.0105C765.306 43.1339 755.234 41.9015 745.485 42.0105C741.775 41.4652 738.514 40.7945 734.865 42.0105C732.032 42.8776 729.029 44.9116 726.179 42.0105C721.609 38.5696 716.77 43.2429 712.26 42.0105C705.881 42.6649 701.031 42.3977 694.323 42.0105C688.06 42.425 685.511 41.6779 679.993 42.0105C674.036 42.7412 667.975 42.2014 661.996 42.0105C656.963 43.7993 651.462 43.7993 646.428 42.0105C640.668 40.4509 634.919 42.0378 629.154 42.0105C623.346 43.3084 618.129 44.579 612.331 42.0105C610.632 43.3738 608.96 43.3738 607.316 42.0105C606.823 40.8381 606.177 42.8339 605.371 42.0105C602.521 42.5558 600.488 42.8394 597.151 42.0105C592.246 43.1502 588.613 42.5831 583.999 42.0105C575.779 40.1346 566.172 41.8469 557.695 42.0105C550.099 41.7215 552.697 45.8332 548.269 42.0105C545.858 39.3439 546.422 43.7555 543.507 42.0105C539.309 43.1775 534.284 41.0289 529.993 42.0105C522.091 40.4782 514.183 42.2886 506.281 42.0105C497.074 39.9001 488.098 43.8046 479.198 42.0105C471.625 43.1448 464.369 42.2396 456.763 42.0105C451.321 43.0521 448.652 37.3208 443.989 42.0105C439.95 43.7883 435.61 44.2518 430.371 42.0105C422.54 41.7706 413.684 42.0432 405.711 42.0105C396.986 41.9287 384.832 38.8695 377.072 42.0105C368.161 42.2614 359.136 42.1141 349.699 42.0105C341.665 38.9131 333.407 44.4972 324.781 42.0105C321.197 43.93 317.043 38.5641 313.509 42.0105C307.897 38.1933 307.508 41.7215 305.656 42.0105C301.398 36.9009 299.419 44.688 295.759 42.0105C292.252 38.6405 289.731 39.6547 286.311 42.0105C283.966 39.0713 282.207 40.729 279.894 42.0105C277.072 47.8672 273.318 38.3623 270.435 42.0105C263.859 39.513 257.283 42.185 250.707 42.0105C245.967 42.6485 235.944 41.8251 231.774 42.0105C229.034 39.9492 229.428 39.3057 227.724 42.0105C226.041 43.7065 224.381 39.0494 221.696 42.0105C216.133 39.7584 210.736 36.4646 205.606 42.0105C200.165 40.5545 193.643 44.9879 187.029 42.0105C180.414 45.3315 173.707 43.7773 167.893 42.0105C159.941 40.5927 155.113 44.519 146.756 42.0105C136.645 43.6465 125.932 40.3582 115.931 42.0105C108.67 46.8475 100.965 43.9628 93.7583 42.0105C90.7827 40.5545 88.9523 40.5163 86.437 42.0105C82.6448 45.4733 79.1594 43.2102 74.6055 42.0105C67.591 41.4652 59.9299 44.2627 52.91 42.0105C45.7201 43.3956 42.1088 37.9915 34.7984 42.0105C32.1405 40.4127 27.0331 43.87 24.6986 42.0105C21.4654 42.5068 20.2543 41.4107 16.4402 42.0105C11.3602 41.3016 5.15673 41.0835 0 42.0105C0 40.9199 0 18.2838 0 16.6478C3.83604 14.9246 9.54627 14.8537 15.0756 13.4577C18.7034 13.6486 22.3367 14.003 25.9645 13.4577C31.3624 13.4577 39.4838 12.8797 43.961 14.0794C45.901 16.7296 46.5312 15.5026 48.9643 16.1134C51.8085 20.2415 54.3293 18.1038 57.3872 16.6587C62.3576 16.0589 65.3168 15.0827 69.5639 15.0664C73.3615 14.0575 74.622 10.802 79.1047 13.6704C80.6665 10.0004 79.0718 9.63504 79.0005 9.30785C83.675 10.0004 88.9468 6.88117 93.9392 8.46804C98.2794 8.82795 101.94 7.11565 106.483 7.09929C117.739 3.22208 129.499 6.12865 140.372 7.94456C149.419 13.5232 160.297 8.38623 169.542 8.17901C178.94 8.12993 186.415 7.24109 195.742 11.4073C203.891 15.0828 214.221 10.5293 221.92 11.5327C224.392 13.654 224.112 8.86615 225.756 13.2614C227.822 16.4079 230.453 13.3868 232.667 13.9976C234.738 16.1298 236.843 15.3772 238.909 14.7883C241.435 10.4257 245.518 14.0412 247.616 15.5299C251.047 16.7841 251.644 20.874 256.302 17.7494C260.549 14.8537 264.84 14.8592 269.093 17.673C273.351 17.1277 273.652 20.2905 276.924 19.418C280.349 21.7629 287.089 22.0846 291.172 22.8099C295.118 22.7227 298.449 21.8992 302.346 24.026C307.59 24.1896 313.207 24.5713 317.92 27.9904C321.12 26.6162 323.444 29.6847 326.688 29.3521C331.072 30.7645 339.879 28.5341 344.35 29.483C351.387 29.0031 355.798 31.7024 362.089 27.847C364.128 22.0394 366.079 26.98 368.074 26.7564C370.266 25.2404 371.422 30.1226 373.439 27.396C377.565 26.6162 384.399 26.7798 389.155 25.2802C394.904 22.3082 401.469 24.7348 407.322 25.0729C410.61 24.5985 414.994 23.2516 418.189 25.2202C424.935 24.1295 427.138 22.6027 430.311 17.8366C432.13 16.8769 435.106 12.4816 438.098 12.5852C440.251 11.2383 444.707 13.5558 447.195 11.38C452.368 10.9656 457.552 6.05227 462.676 8.30988C466.03 6.00864 471.833 9.54229 475.192 8.0972C479.456 9.27508 482.316 10.8892 487.057 10.3439C490.745 9.91855 495.825 10.6984 499.398 10.0822C501.316 7.67731 502.943 5.79598 505.026 8.32626C508.105 11.0528 511.098 9.96221 514.134 7.91727C517.794 3.11847 521.806 8.51709 525.762 6.12315C530.026 9.75496 535.034 3.15122 539.386 6.03049C543.397 3.43478 547.408 2.14238 551.442 6.03049C557.618 4.54723 562.862 5.24524 568.846 7.12112C574.962 8.51168 583.522 10.2022 589.671 6.85938C593.907 5.29432 598.072 3.30392 602.362 4.67812C607.749 4.02374 612.627 3.04211 617.816 2.23503C622.085 0.920822 635.972 1.1826 640.142 1.91878C639.441 8.40805 653.119 5.84508 658.626 4.9344C668.403 4.5036 677.121 5.58875 686.958 3.87645C695.649 3.71285 701.924 0.271942 710.32 0.920868C716.512 1.28623 726.212 -1.21677 732.465 0.784542C739.15 1.14991 745.2 0.93177 752.067 4.72718C760.029 3.00943 766.863 3.09118 774.694 3.86553C780.623 4.31814 786.558 3.06937 792.488 3.86553C795.26 4.21453 798.055 2.08238 800.779 4.04007C803.148 4.90867 805.613 5.49084 808.122 5.77414C809.69 6.7339 811.618 5.94868 813.131 6.1559C816.704 6.53217 819.334 7.5028 822.918 9.59682C825.982 11.5981 830.404 11.3582 833.829 11.3146C837.577 11.5709 840.202 10.5239 844.022 11.7181C849.425 13.0541 852.883 12.8088 857.547 16.0807C866.194 18.4201 878.185 17.2858 887.764 17.6185C897.266 19.9143 904.626 17.4713 913.367 19.7998C917.936 22.1251 922.793 23.843 927.812 24.9094C930.821 28.0286 935.194 25.4547 938.224 25.0293C944.713 23.4316 949.398 23.3934 955.618 26.5453C959.158 24.9585 963.219 27.0906 967.005 27.2161C968.102 29.1901 969.433 28.5357 970.535 26.987C971.28 26.0054 971.768 26.8943 972.935 25.182C976.091 26.758 979.648 25.4274 982.251 26.6762C991.364 27.0034 1000.62 25.2966 1009.89 26.0818C1015.58 25.2748 1021.3 28.6285 1027 26.0818C1035.25 23.6715 1042.55 25.1874 1049.15 24.255C1053.66 25.8309 1060.11 17.4604 1065.73 19.947C1073.17 22.1719 1080.22 19.707 1087.31 18.6764C1093.16 16.1134 1099.37 14.7283 1105.49 15.8462C1111.89 13.305 1121.5 9.88585 1129.49 11.3146C1131.78 10.2567 1132.14 13.6758 1134.42 13.4959C1137.12 14.6792 1142.44 11.4618 1145.55 13.414C1151.43 13.2614 1159.54 7.82459 1164.28 14.4175C1168.44 15.5681 1167.93 16.0534 1174 16.6642C1177.83 15.8041 1181.75 15.4104 1185.68 15.4917C1188.26 16.5026 1191.13 16.5143 1193.72 15.5244C1198.84 13.8339 1201.14 17.9566 1205.59 13.9376C1211.94 14.6901 1219.07 13.9758 1225.86 10.1803C1235.93 8.22811 1247.23 3.09123 1258.06 5.9596C1265.67 6.85392 1273.3 5.2616 1280.91 6.04141C1288.54 6.04141 1296.15 7.59008 1303.77 6.00866C1310.47 2.56771 1320.45 3.38569 1326.64 6.63033C1331.95 7.39377 1335.36 9.94582 1341.59 9.18237C1348.86 13.4304 1356.13 8.30441 1363.39 9.18237C1370.91 7.71002 1380.77 7.16476 1388.18 9.10609C1392.06 9.96223 1392.44 15.5353 1395.56 12.198C1398.88 16.9095 1404.6 11.2873 1407.95 11.5872C1418.36 13.8558 1428.88 5.7251 1439.19 7.03931C1446.17 3.72379 1451.74 3.36386 1459.2 2.79673C1469.18 2.88943 1478.32 2.48048 1487.69 5.21252C1496.46 11.1074 1504.05 7.93908 1513.55 7.09383C1517.5 10.6711 1520.98 3.99647 1524.96 5.97052C1528.62 8.39172 1532.34 8.25536 1536 6.00866C1536 7.77549 1536 13.0747 1536 18.0438C1536 23.0129 1536 42.7412 1536 42.0105Z" fill="#EFFFF7"/>
</svg>
